<svg width="13" height="13" viewBox="0 0 13 13" fill="none" xmlns="http://www.w3.org/2000/svg">
    <path
        d="M5.8034 0.798226C5.96624 0.470486 6.43376 0.470487 6.5966 0.798226L7.9265 3.47486C7.99098 3.60464 8.11489 3.69467 8.25825 3.71589L11.2148 4.15357C11.5769 4.20716 11.7213 4.6518 11.4599 4.90795L9.32528 6.99988C9.22177 7.10131 9.17445 7.24697 9.19856 7.38988L9.69594 10.337C9.75684 10.6979 9.3786 10.9727 9.05423 10.8032L6.40503 9.41949C6.27658 9.3524 6.12342 9.3524 5.99497 9.41949L3.34577 10.8032C3.02139 10.9727 2.64316 10.6979 2.70406 10.337L3.20144 7.38988C3.22555 7.24697 3.17823 7.10131 3.07472 6.99988L0.940051 4.90795C0.678672 4.6518 0.823146 4.20716 1.18516 4.15357L4.14175 3.71589C4.28511 3.69467 4.40902 3.60464 4.4735 3.47486L5.8034 0.798226Z"
        fill="#FEA500" />
</svg>