<svg viewBox="0 0 26 20" fill="none" xmlns="http://www.w3.org/2000/svg">
    <g clip-path="url(#clip0_355_40648)">
        <path fill-rule="evenodd" clip-rule="evenodd" d="M-1.64125 0H27.6392V20H-1.64125V0Z"
            fill="#FF0000" />
        <path fill-rule="evenodd" clip-rule="evenodd"
            d="M7.25182 10.1992C7.76979 9.55078 8.84762 10.1836 9.7274 9.71875C8.68385 9.77734 8.11637 9.20313 7.29371 9.28516C8.14684 8.74609 8.87428 9.46094 9.82643 9.17578C8.56578 9.06641 8.6191 8.48438 7.46891 8.40234C8.48961 7.95703 8.99234 8.86328 9.994 8.65625C8.81334 8.37891 8.661 7.66797 7.78502 7.51563C9.06471 7.32031 8.98092 8.09375 10.2339 8.1875C8.96188 7.62891 9.29322 7.14063 8.23063 6.71484C9.42272 6.6875 9.34273 7.53516 10.5539 7.75391C9.51793 7.08203 9.64361 6.46875 8.7943 5.98828C9.80357 6.00781 9.89879 7.06641 10.9309 7.39453C10.013 6.64844 10.253 6.01562 9.4608 5.34766C10.4663 5.58984 10.3177 6.50391 11.3651 7.08984C10.5881 6.20703 10.8852 5.57422 10.2111 4.85156C11.1785 5.16797 10.809 6.03906 11.8107 6.86719C11.2394 5.89453 11.5936 5.27344 11.0261 4.45703C11.925 4.92969 11.4908 5.82031 12.3211 6.70313C11.9288 5.70703 12.3211 5.08984 11.9212 4.20703C12.6905 4.79297 12.2335 5.74219 12.8543 6.64844C12.6257 5.39844 13.1513 5.19531 12.9876 4.10156C13.5703 4.83594 12.919 5.57031 13.3684 6.65234C13.3113 5.42188 13.9511 5.13672 13.8407 4.15234C14.4158 5.03516 13.517 5.80469 13.894 6.75C13.9892 5.58594 14.7357 5.28125 14.7471 4.375C15.2042 5.20703 14.2139 5.80859 14.3739 6.91406C14.6976 5.69531 15.4936 5.54688 15.5926 4.72656C15.863 5.6875 14.7776 6.13281 14.8423 7.20313C15.1661 6.12109 16.1601 5.99219 16.3658 5.19531C16.4915 6.21094 15.5127 6.39453 15.2346 7.51953C15.7488 6.60156 16.6514 6.52734 17.0551 5.80078C17.0247 6.80859 15.9202 6.94141 15.5812 7.88281C16.2172 7.08203 17.0171 7.21875 17.6531 6.51172C17.5845 7.42188 16.461 7.37109 15.863 8.3125C16.5524 7.66016 17.5921 7.85547 18.1215 7.29297C18.0949 8.09766 16.7162 8.03516 16.0649 8.75781C16.8647 8.30469 17.8854 8.57031 18.4719 8.15234C18.3653 8.85547 16.9104 8.69141 16.2134 9.24609C17.1732 8.97266 17.9159 9.39063 18.689 9.08984C18.312 9.77344 16.9904 9.33984 16.2896 9.78516C17.1275 9.64063 18.0111 10.1602 18.769 9.99219C18.5214 10.5859 17.0704 9.95313 16.2934 10.3242C17.2227 10.3164 17.8283 10.9297 18.6928 10.8867C18.2244 11.4258 16.9523 10.6875 16.2096 10.8125C17.1161 11.0078 17.8092 11.7734 18.4948 11.8125C17.9273 12.2539 16.8761 11.2461 16.0192 11.3711C16.9028 11.6133 17.6417 12.6406 18.1444 12.6641C17.5998 13.0469 16.5257 11.7852 15.7907 11.832C16.6857 12.2461 17.0932 13.2969 17.6836 13.4453C16.9561 13.6836 16.2401 12.3047 15.4593 12.2539C16.3658 12.8398 16.4153 13.7383 17.1123 14.1367C16.3772 14.3203 15.8554 12.7617 15.0823 12.6289C15.825 13.1875 15.9392 14.3867 16.4305 14.7617C15.684 14.8008 15.4136 13.1719 14.6481 12.9375C15.3032 13.5 15.147 14.7188 15.6574 15.2422C14.8804 15.0742 14.9795 13.6563 14.1682 13.1758C14.7509 13.9336 14.4539 15.0078 14.8347 15.6133C14.0768 15.3008 14.4044 14.0273 13.6845 13.3086C14.0768 14.1133 13.6541 15.0508 13.9664 15.8281C13.2732 15.4805 13.7379 13.9766 13.2085 13.3789C13.4522 14.3086 13.0028 15.0781 13.1856 15.9102C12.4772 15.0703 13.2922 14.2227 12.6791 13.3672C12.839 14.3477 12.1687 15.0352 12.2754 15.8555C11.7155 15.1836 12.58 14.1094 12.1421 13.2617C12.2335 14.2266 11.3689 15.0742 11.4298 15.6836C10.9728 14.9023 11.9364 13.9805 11.6774 13.0938C11.6241 14.0156 10.7481 14.5156 10.5843 15.3555C10.2911 14.4297 11.3308 13.7617 11.2394 12.8516C10.9423 13.7148 10.0968 14.0625 9.79977 14.9023C9.55602 13.9766 10.79 13.4883 10.8205 12.5195C10.4396 13.4258 9.43033 13.6289 9.09518 14.3242C8.96949 13.4063 10.3825 12.9961 10.4358 12.125C9.97877 12.9609 8.87428 12.9961 8.49342 13.6602C8.43629 12.7461 9.92545 12.6328 10.1578 11.6758C9.70455 12.3867 8.49342 12.2969 7.98688 12.875C8.06686 12.0273 9.67789 11.9766 9.93688 11.2109C9.33512 11.8047 8.22301 11.5625 7.59459 12.0313C7.94498 11.1953 9.45699 11.3711 9.79596 10.7695C9.12945 11.125 7.94498 10.7773 7.35846 11.1367C7.89166 10.3477 9.06471 10.8203 9.73121 10.2773C8.64957 10.4375 7.9983 9.99609 7.24801 10.1992H7.25182Z"
            fill="#FFFF00" />
        <path fill-rule="evenodd" clip-rule="evenodd"
            d="M16.7923 10.0039C16.7923 11.0321 16.3941 12.0183 15.6852 12.7453C14.9763 13.4724 14.0148 13.8809 13.0123 13.8809C12.0098 13.8809 11.0483 13.4724 10.3394 12.7453C9.63054 12.0183 9.23228 11.0321 9.23228 10.0039C9.23228 8.97619 9.63034 7.99057 10.3389 7.26387C11.0474 6.53716 12.0084 6.12891 13.0104 6.12891C14.0124 6.12891 14.9734 6.53716 15.6819 7.26387C16.3905 7.99057 16.7885 8.97619 16.7885 10.0039H16.7923Z"
            fill="#FFFF00" />
        <path fill-rule="evenodd" clip-rule="evenodd"
            d="M16.3048 10.0117C16.3048 10.9058 15.9586 11.7632 15.3422 12.3954C14.7258 13.0276 13.8897 13.3828 13.018 13.3828C12.1463 13.3828 11.3103 13.0276 10.6939 12.3954C10.0775 11.7632 9.73121 10.9058 9.73121 10.0117C9.73121 9.11765 10.0775 8.2602 10.6939 7.628C11.3103 6.99579 12.1463 6.64063 13.018 6.64062C13.8897 6.64063 14.7258 6.99579 15.3422 7.628C15.9586 8.2602 16.3048 9.11765 16.3048 10.0117V10.0117Z"
            fill="#FF0000" />
        <path fill-rule="evenodd" clip-rule="evenodd"
            d="M15.8478 10.0195C15.8478 10.7872 15.5505 11.5234 15.0212 12.0663C14.492 12.6091 13.7741 12.9141 13.0256 12.9141C12.2772 12.9141 11.5593 12.6091 11.0301 12.0663C10.5008 11.5234 10.2035 10.7872 10.2035 10.0195C10.2035 9.25185 10.5008 8.51562 11.0301 7.97279C11.5593 7.42996 12.2772 7.125 13.0256 7.125C13.7741 7.125 14.492 7.42996 15.0212 7.97279C15.5505 8.51562 15.8478 9.25185 15.8478 10.0195V10.0195Z"
            fill="#FFFF00" />
        <path fill-rule="evenodd" clip-rule="evenodd"
            d="M10.6224 8.125C11.4032 8.10547 12.3744 8.17969 13.018 8.70313C13.7057 8.26297 14.5152 8.06671 15.3222 8.14453L15.7412 8.92969C15.0902 8.86877 14.4348 8.97901 13.8369 9.25C14.2642 9.57325 14.6078 9.999 14.8375 10.49C15.0672 10.981 15.1761 11.5223 15.1546 12.0664C15.0518 12.1992 14.888 12.3438 14.7852 12.4766C14.9376 11.3633 14.3663 10.1211 13.5322 9.46875C14.2101 10.4688 14.61 11.3672 14.4996 12.6094L14.1187 12.8594C14.2939 11.7656 14.0425 10.4766 13.2542 9.73438C13.7112 10.418 14.1606 11.6484 13.8788 12.8984C13.7569 12.9375 13.5665 13.043 13.4446 13.0781C13.5939 12.5653 13.6344 12.0256 13.5635 11.4953C13.4925 10.9651 13.3118 10.4565 13.0333 10.0039C12.5077 10.7773 12.3363 11.957 12.6334 13.0508C12.4886 13.0117 12.3782 12.9648 12.2296 12.9297C12.0126 11.7578 12.3134 10.4297 12.8352 9.73828C12.302 10.0547 11.8031 11.4062 11.944 12.7852L11.5898 12.6172C11.4184 11.5898 11.8716 10.25 12.5229 9.47656C11.784 9.95313 11.1823 11.1289 11.2851 12.3906C11.1709 12.2891 11.068 12.2383 10.9538 12.1328C10.8243 11.0313 11.4489 9.92188 12.1763 9.25781C11.5631 8.97266 11.0337 8.91797 10.272 8.92969C10.3901 8.67578 10.5005 8.37891 10.6224 8.12109V8.125Z"
            fill="#FF0000" />
    </g>
    <defs>
        <clipPath id="clip0_355_40648">
            <rect width="26" height="20" rx="2" fill="white" />
        </clipPath>
    </defs>
</svg>