<svg viewBox="0 0 26 20" fill="none" xmlns="http://www.w3.org/2000/svg">
    <g clip-path="url(#clip0_355_40296)">
        <path fill-rule="evenodd" clip-rule="evenodd" d="M0 0H26V20H0V0Z" fill="#00ABC2" />
        <path fill-rule="evenodd" clip-rule="evenodd"
            d="M2.44563 19.4583C2.57969 19.5917 2.535 19.8125 2.90469 19.7833C3.46531 19.7833 3.48156 19.4333 3.48156 19.1875C3.48156 18.9417 2.64063 18.6 2.6 18.2375C2.55938 17.875 2.795 17.7792 2.99 17.7792C3.18094 17.7792 3.315 17.8917 3.315 17.9917C3.315 18.0917 3.22563 18.125 3.0875 18.125C2.94938 18.125 3.14844 18.0542 3.03063 18C2.91281 17.9458 2.83563 18.0833 2.83563 18.1667C2.83563 18.2583 3.12813 18.2833 3.32313 18.2208C3.36375 18.4167 3.38 18.4292 3.10781 18.7625C3.30281 18.6333 3.31906 18.6042 3.53438 18.6792C3.31906 18.4875 3.48156 18.1042 3.48563 18.0083C3.48969 17.9125 3.445 17.7958 3.36375 17.7375C3.20531 17.5917 2.86813 17.5833 2.665 17.6792C2.36844 17.8125 2.35219 18.2125 2.42938 18.3458L3.25 19.1958C3.30688 19.2958 3.33125 19.5792 2.98188 19.5917C2.61625 19.6208 2.48625 19.1083 2.42125 18.9375C2.33594 19.125 2.23844 19.6375 1.86875 19.6083C1.51938 19.5958 1.45438 19.3167 1.51125 19.2125L2.35219 18.3375C2.43344 18.2042 2.41719 17.8042 2.12063 17.6708C1.9175 17.575 1.58031 17.5875 1.42594 17.7292C1.33656 17.7875 1.28781 17.9 1.29594 18C1.30406 18.1 1.4625 18.4792 1.25125 18.6667C1.4625 18.5958 1.48281 18.625 1.67781 18.75C1.40563 18.4208 1.42594 18.4083 1.4625 18.2083C1.6575 18.275 1.95 18.25 1.95 18.1625C1.95 18.075 1.86875 17.9292 1.75094 17.9875C1.63719 18.0458 1.83219 18.1167 1.69406 18.1167C1.56 18.1167 1.4625 18.0875 1.4625 17.9917C1.4625 17.8958 1.59656 17.7708 1.79156 17.7708C1.98656 17.7708 2.21813 17.8708 2.1775 18.2333C2.13688 18.5958 1.28375 18.9875 1.28375 19.2333C1.28375 19.4833 1.34063 19.7792 1.90125 19.7792C2.26688 19.8083 2.31156 19.5875 2.44563 19.4542V19.4583Z"
            fill="#FFEC2D" />
        <path fill-rule="evenodd" clip-rule="evenodd"
            d="M2.40094 14.3042C2.535 14.1709 2.64469 13.7792 3.01031 13.8042C3.57094 13.8042 3.78219 14.125 3.78219 14.3709C3.78219 14.6167 2.64469 16.6209 2.60406 16.9834C2.56344 17.3459 2.79906 17.4459 2.99 17.4459C3.185 17.4459 3.31906 17.3334 3.31906 17.2292C3.31906 17.125 3.22156 17.1042 3.0875 17.1042C2.95344 17.1042 3.14437 17.175 3.03062 17.2292C2.91687 17.2834 2.83562 17.1459 2.83562 17.0584C2.83562 16.9709 3.12812 16.9417 3.32312 17.0084C3.35969 16.8125 3.37594 16.8 3.10781 16.4667C3.30281 16.5917 3.31906 16.625 3.53437 16.55C3.31906 16.7417 3.4775 17.1209 3.48562 17.2167C3.49375 17.3125 3.445 17.4334 3.35969 17.4917C3.20531 17.6375 2.86406 17.6417 2.66094 17.55C2.36844 17.4125 2.35219 17.0167 2.42937 16.8834L3.53437 14.4417C3.59531 14.3417 3.44094 14.0084 3.09156 13.9959C2.72594 13.9667 2.6 14.3625 2.535 14.5334L3.03469 14.4917C3.03469 14.4917 3.055 14.575 3.03469 14.625C2.86703 14.6376 2.70021 14.6598 2.535 14.6917L2.51469 14.95H2.75844L2.74219 15.0667C2.74219 15.0667 2.535 15.05 2.51469 15.0667C2.49437 15.0792 2.47406 15.325 2.47406 15.325C2.47406 15.325 2.43344 15.3417 2.39281 15.3417C2.35219 15.3417 2.31156 15.325 2.31156 15.325C2.31156 15.325 2.29531 15.0792 2.275 15.0667C2.25469 15.05 2.0475 15.0667 2.0475 15.0667L2.02719 14.95H2.275L2.25469 14.6917C2.25469 14.6917 2.01094 14.6417 1.755 14.625C1.73875 14.575 1.755 14.4959 1.755 14.4959L2.25469 14.5334C2.18969 14.3625 2.06375 13.9667 1.69812 13.9917C1.34875 14.0084 1.19437 14.3417 1.25125 14.4417L2.35625 16.8834C2.43344 17.0125 2.41719 17.4125 2.12469 17.55C1.92156 17.6417 1.58031 17.6334 1.42594 17.4917C1.34062 17.4334 1.29187 17.3167 1.3 17.2209C1.30812 17.125 1.4625 16.7375 1.25125 16.5542C1.46656 16.625 1.48687 16.5959 1.67781 16.4667C1.40969 16.8 1.42594 16.8125 1.46656 17.0084C1.6575 16.9417 1.95 16.9667 1.95 17.0584C1.95 17.1417 1.86875 17.2875 1.755 17.2292C1.64125 17.1709 1.83625 17.1042 1.69812 17.1042C1.56406 17.1042 1.46656 17.1292 1.46656 17.2292C1.46656 17.3292 1.60062 17.4459 1.79156 17.4459C1.9825 17.4459 2.21812 17.3459 2.18156 16.9875C2.14094 16.625 1.00344 14.6125 1.00344 14.3709C1.00344 14.1209 1.21469 13.8084 1.77531 13.8084C2.14094 13.7792 2.275 14.1709 2.405 14.3042H2.40094Z"
            fill="#FFEC2D" />
        <path fill-rule="evenodd" clip-rule="evenodd"
            d="M2.40094 13.3083C2.535 13.4417 2.64469 13.8333 3.01031 13.8083C3.57094 13.8083 3.78219 13.4875 3.78219 13.2417C3.78219 12.9958 2.64469 10.9917 2.60406 10.6292C2.56344 10.2667 2.79906 10.1667 2.99 10.1667C3.185 10.1667 3.31906 10.2792 3.31906 10.3833C3.31906 10.4875 3.22156 10.5083 3.0875 10.5083C2.95344 10.5083 3.14437 10.4417 3.03062 10.3833C2.91687 10.325 2.83562 10.4667 2.83562 10.5542C2.83562 10.6417 3.12812 10.6708 3.32312 10.6042C3.35969 10.8 3.37594 10.8125 3.10781 11.1458C3.30281 11.0208 3.31906 10.9875 3.53437 11.0625C3.31906 10.8708 3.4775 10.4917 3.48562 10.3958C3.49375 10.3 3.445 10.1792 3.35969 10.1208C3.20531 9.97918 2.86406 9.97085 2.66094 10.0625C2.36844 10.2 2.35219 10.5958 2.42937 10.7292L3.53437 13.1667C3.59531 13.2667 3.44094 13.6 3.09156 13.6125C2.72594 13.6417 2.6 13.2458 2.535 13.075L3.03469 13.1167C3.03469 13.1167 3.055 13.0333 3.03469 12.9833C2.86703 12.9708 2.70021 12.9485 2.535 12.9167L2.51469 12.6583H2.75844L2.74219 12.5417C2.74219 12.5417 2.535 12.5583 2.51469 12.5417C2.49437 12.5292 2.47406 12.2833 2.47406 12.2833C2.47406 12.2833 2.43344 12.2667 2.39281 12.2667C2.35219 12.2667 2.31156 12.2833 2.31156 12.2833C2.31156 12.2833 2.29531 12.5292 2.275 12.5417C2.25469 12.5583 2.0475 12.5417 2.0475 12.5417L2.02719 12.6583H2.275L2.25469 12.9167C2.25469 12.9167 2.01094 12.9667 1.755 12.9833C1.73875 13.0333 1.755 13.1125 1.755 13.1125L2.25469 13.075C2.18969 13.2458 2.06375 13.6417 1.69812 13.6167C1.34875 13.6 1.19437 13.2667 1.25125 13.1667L2.35625 10.7292C2.43344 10.5958 2.41719 10.2 2.12469 10.0625C1.92156 9.97085 1.58031 9.97918 1.42594 10.1208C1.34062 10.1792 1.29187 10.2958 1.3 10.3917C1.30812 10.4875 1.4625 10.8708 1.25125 11.0583C1.46656 10.9875 1.48687 11.0167 1.67781 11.1458C1.40969 10.8125 1.42594 10.8 1.46656 10.6042C1.6575 10.6708 1.95 10.6458 1.95 10.5542C1.95 10.4708 1.86875 10.325 1.755 10.3833C1.64125 10.4417 1.83625 10.5083 1.69812 10.5083C1.56406 10.5083 1.46656 10.4833 1.46656 10.3833C1.46656 10.2833 1.60062 10.1667 1.79156 10.1667C1.9825 10.1667 2.21812 10.2667 2.18156 10.625C2.14094 10.9875 1.00344 13 1.00344 13.2417C1.00344 13.4917 1.21469 13.8042 1.77531 13.8042C2.14094 13.8333 2.275 13.4417 2.405 13.3083H2.40094Z"
            fill="#FFEC2D" />
        <path fill-rule="evenodd" clip-rule="evenodd"
            d="M2.40094 6.69167C2.535 6.55833 2.64469 6.16667 3.01031 6.19167C3.57094 6.19167 3.78219 6.5125 3.78219 6.75833C3.78219 7.00416 2.64469 9.00833 2.60406 9.375C2.56344 9.73333 2.79906 9.83333 2.99 9.83333C3.185 9.83333 3.31906 9.72083 3.31906 9.62083C3.31906 9.52083 3.22156 9.4875 3.0875 9.4875C2.95344 9.4875 3.14437 9.5625 3.03062 9.62083C2.91687 9.67916 2.83562 9.53333 2.83562 9.44583C2.83562 9.3625 3.12812 9.32916 3.32312 9.39583C3.35969 9.2 3.37594 9.1875 3.10781 8.85416C3.30281 8.98333 3.31906 9.0125 3.53437 8.9375C3.31906 9.12916 3.4775 9.5125 3.48562 9.60416C3.49375 9.69583 3.445 9.82083 3.35969 9.87916C3.20531 10.025 2.86406 10.0292 2.66094 9.9375C2.36844 9.8 2.35219 9.40416 2.42937 9.27083L3.53437 6.83333C3.59531 6.73333 3.44094 6.4 3.09156 6.3875C2.72594 6.35833 2.6 6.75416 2.535 6.925L3.03469 6.88333C3.03469 6.88333 3.055 6.96666 3.03469 7.01666C2.77469 7.03333 2.535 7.08333 2.535 7.08333L2.51469 7.34166H2.75844L2.74219 7.45833C2.74219 7.45833 2.535 7.44583 2.51469 7.45833C2.49437 7.47083 2.47406 7.72083 2.47406 7.72083C2.47406 7.72083 2.43344 7.73333 2.39281 7.73333C2.35219 7.73333 2.31156 7.72083 2.31156 7.72083C2.31156 7.72083 2.29531 7.47083 2.275 7.45833C2.25469 7.44583 2.0475 7.45833 2.0475 7.45833L2.02719 7.34166H2.275L2.25469 7.08333C2.25469 7.08333 2.01094 7.03333 1.755 7.01666C1.73875 6.96666 1.755 6.8875 1.755 6.8875L2.25469 6.925C2.18969 6.75416 2.06375 6.35833 1.69812 6.38333C1.34875 6.4 1.19437 6.73333 1.25125 6.83333L2.35625 9.27083C2.43344 9.40416 2.41719 9.8 2.12469 9.9375C1.92156 10.0292 1.58031 10.0208 1.42594 9.87916C1.34062 9.82083 1.29187 9.70416 1.3 9.60833C1.30812 9.5125 1.4625 9.12916 1.25125 8.94166C1.46656 9.0125 1.48687 8.98333 1.67781 8.85416C1.40969 9.1875 1.42594 9.2 1.46656 9.39583C1.6575 9.32916 1.95 9.35833 1.95 9.44583C1.95 9.52916 1.86875 9.675 1.755 9.61666C1.64125 9.5625 1.83625 9.49166 1.69812 9.49166C1.56406 9.49166 1.46656 9.51666 1.46656 9.61666C1.46656 9.71666 1.60062 9.83333 1.79156 9.83333C1.9825 9.83333 2.21812 9.73333 2.18156 9.375C2.14094 9.0125 1.00344 7.00416 1.00344 6.75833C1.00344 6.5125 1.21469 6.19583 1.77531 6.19583C2.14094 6.16666 2.275 6.55833 2.405 6.69583L2.40094 6.69167Z"
            fill="#FFEC2D" />
        <path fill-rule="evenodd" clip-rule="evenodd"
            d="M2.40094 5.69583C2.535 5.82916 2.64469 6.22499 3.01031 6.19583C3.57094 6.19583 3.78219 5.87499 3.78219 5.62916C3.78219 5.38333 2.64469 3.37916 2.60406 3.01666C2.56344 2.65416 2.79906 2.55416 2.99 2.55416C3.185 2.55416 3.31906 2.67083 3.31906 2.77083C3.31906 2.87083 3.22156 2.89999 3.0875 2.89999C2.95344 2.89999 3.14437 2.82916 3.03062 2.77083C2.91687 2.71249 2.83562 2.85416 2.83562 2.94166C2.83562 3.02916 3.12812 3.05833 3.32312 2.99166C3.35969 3.18749 3.37594 3.19999 3.10781 3.53333C3.30281 3.40833 3.31906 3.37499 3.53437 3.44999C3.31906 3.26249 3.4775 2.87916 3.48562 2.78333C3.49375 2.68749 3.445 2.56666 3.35969 2.50833C3.20531 2.36666 2.86406 2.35833 2.66094 2.45416C2.36844 2.58749 2.35219 2.98749 2.42937 3.11666L3.53437 5.55833C3.59531 5.65833 3.44094 5.99166 3.09156 6.00833C2.72594 6.03333 2.6 5.64166 2.535 5.46666L3.03469 5.50833C3.03469 5.50833 3.055 5.42499 3.03469 5.37499C2.86712 5.36368 2.7003 5.34281 2.535 5.31249L2.51469 5.04999H2.75844L2.74219 4.93333C2.74219 4.93333 2.535 4.94999 2.51469 4.93333C2.49437 4.92083 2.47406 4.67499 2.47406 4.67499C2.47406 4.67499 2.43344 4.65833 2.39281 4.65833C2.35219 4.65833 2.31156 4.67499 2.31156 4.67499C2.31156 4.67499 2.29531 4.92083 2.275 4.93333C2.25469 4.94999 2.0475 4.93333 2.0475 4.93333L2.02719 5.04999H2.275L2.25469 5.31249C2.25469 5.31249 2.01094 5.35833 1.755 5.37499C1.73875 5.42916 1.755 5.50833 1.755 5.50833L2.25469 5.46666C2.18969 5.64166 2.06375 6.03333 1.69812 6.00833C1.34875 5.99166 1.19437 5.65833 1.25125 5.55833L2.35625 3.11666C2.43344 2.98749 2.41719 2.58749 2.12469 2.44999C1.92156 2.35833 1.58031 2.36666 1.42594 2.50833C1.34062 2.56666 1.29187 2.68333 1.3 2.77916C1.30812 2.87499 1.4625 3.26249 1.25125 3.44583C1.46656 3.37499 1.48687 3.40416 1.67781 3.53333C1.40969 3.19999 1.42594 3.18749 1.46656 2.99166C1.66156 3.05833 1.95 3.03333 1.95 2.94166C1.95 2.85833 1.86875 2.71249 1.755 2.77083C1.64125 2.82916 1.83625 2.89999 1.69812 2.89999C1.56406 2.89999 1.46656 2.87083 1.46656 2.77083C1.46656 2.67083 1.60062 2.55416 1.79156 2.55416C1.9825 2.55416 2.22219 2.65416 2.18156 3.01249C2.14094 3.37499 1.00344 5.38749 1.00344 5.62916C1.00344 5.87916 1.21469 6.19583 1.77531 6.19583C2.14094 6.22499 2.275 5.82916 2.405 5.69583H2.40094Z"
            fill="#FFEC2D" />
        <path fill-rule="evenodd" clip-rule="evenodd"
            d="M2.44563 0.541674C2.57969 0.40834 2.535 0.187507 2.90469 0.216674C3.46531 0.216674 3.48156 0.566674 3.48156 0.812507C3.48156 1.05834 2.64063 1.40001 2.6 1.76251C2.55938 2.12501 2.795 2.22084 2.99 2.22084C3.18094 2.22084 3.315 2.10834 3.315 2.00834C3.315 1.90834 3.22563 1.87501 3.0875 1.87501C2.94938 1.87501 3.14844 1.94584 3.03063 2.00001C2.91281 2.05417 2.83563 1.91667 2.83563 1.83334C2.83563 1.74167 3.12813 1.71251 3.32313 1.77917C3.36375 1.58334 3.38 1.57084 3.10781 1.23751C3.30281 1.36667 3.31906 1.39584 3.53438 1.32084C3.31906 1.51251 3.48156 1.89584 3.48563 1.99167C3.48969 2.08751 3.445 2.20417 3.36375 2.26251C3.20125 2.41667 2.86406 2.41667 2.66094 2.32501C2.36438 2.19167 2.34813 1.79167 2.42531 1.65834L3.25 0.804174C3.30688 0.704174 3.33125 0.42084 2.98188 0.40834C2.61625 0.379174 2.48625 0.891674 2.42125 1.06251C2.33594 0.875007 2.23844 0.35834 1.86875 0.387507C1.51938 0.400007 1.45438 0.679174 1.51125 0.78334L2.35219 1.65834C2.43344 1.79167 2.41719 2.19167 2.12063 2.32501C1.9175 2.42084 1.58031 2.41251 1.42594 2.26667C1.33656 2.20834 1.28781 2.09584 1.29594 1.99584C1.30406 1.89584 1.4625 1.51667 1.25125 1.32917C1.4625 1.40001 1.48281 1.37084 1.67375 1.24584C1.40563 1.57501 1.42594 1.58751 1.4625 1.78751C1.6575 1.72084 1.95 1.74584 1.95 1.83334C1.95 1.92084 1.86875 2.06667 1.75094 2.00834C1.63719 1.95001 1.83219 1.87917 1.69406 1.87917C1.56 1.87917 1.4625 1.90834 1.4625 2.00417C1.4625 2.10001 1.59656 2.22501 1.79156 2.22501C1.98656 2.22501 2.21813 2.12501 2.1775 1.76251C2.13688 1.40001 1.28375 1.00834 1.28375 0.762507C1.28375 0.512507 1.34063 0.216674 1.90125 0.216674C2.26688 0.187507 2.31156 0.40834 2.44563 0.541674V0.541674Z"
            fill="#FFEC2D" />
        <path
            d="M17.9366 8.57961C17.9366 6.59881 16.2846 4.99304 14.2468 4.99304C12.2089 4.99304 10.5569 6.59881 10.5569 8.57961C10.5569 10.5604 12.2089 12.1662 14.2468 12.1662C16.2846 12.1662 17.9366 10.5604 17.9366 8.57961Z"
            fill="#FFEC2D" />
        <path fill-rule="evenodd" clip-rule="evenodd"
            d="M14.0734 2.854C14.0387 2.854 13.8739 4.04581 13.8132 4.31264C13.7525 4.91299 14.5937 4.89076 14.4549 4.2904L14.0734 2.84955V2.854ZM14.3682 14.4075C14.3985 14.4075 14.65 13.229 14.7324 12.9667C14.8321 12.3752 13.991 12.3441 14.082 12.9489L14.3682 14.4075V14.4075ZM8.48871 8.55516C8.48871 8.58629 9.69843 8.83532 9.96725 8.91537C10.5743 9.01765 10.6176 8.20384 9.99327 8.29278L8.48871 8.5596V8.55516ZM20.2694 8.69746C20.2694 8.66633 19.0466 8.46177 18.7735 8.39061C18.1621 8.31501 18.1578 9.12883 18.7735 9.01765L20.2694 8.69746ZM9.72878 4.77514C9.7071 4.79737 10.5049 5.72236 10.6653 5.94917C11.0816 6.39387 11.6322 5.77128 11.0816 5.46888L9.72878 4.77958V4.77514ZM18.8819 12.3796C18.9036 12.3574 18.0277 11.5036 17.8456 11.2946C17.3903 10.8854 16.9004 11.548 17.4727 11.806L18.8819 12.3841V12.3796ZM11.5542 3.48548C11.5282 3.49882 11.9011 4.64617 11.9618 4.91744C12.1699 5.48222 12.9243 5.11311 12.5341 4.62838L11.5585 3.48548H11.5542ZM16.8917 13.8205C16.922 13.8072 16.6315 12.6376 16.5925 12.3663C16.4234 11.7882 15.6473 12.0995 15.9985 12.6153L16.896 13.8161L16.8917 13.8205ZM18.2055 4.28596C18.1795 4.26372 17.2169 5.02417 16.9827 5.17537C16.5188 5.57561 17.1475 6.11815 17.4684 5.58895L18.2055 4.28596ZM10.2708 12.9C10.2924 12.9222 11.3114 12.2329 11.5542 12.095C12.0442 11.7304 11.4588 11.1434 11.0989 11.6503L10.2751 12.9H10.2708ZM8.7532 6.49171C8.74019 6.51839 9.79382 7.14543 10.0236 7.30997C10.5656 7.59903 10.8821 6.84303 10.2621 6.72296L8.7532 6.49171V6.49171ZM19.7534 10.8676C19.7664 10.841 18.7561 10.1428 18.5393 9.96488C18.019 9.6358 17.6505 10.3696 18.2618 10.5297L19.7534 10.8676V10.8676ZM16.2587 3.17863C16.2283 3.16974 15.6256 4.21925 15.4652 4.44605C15.4655 4.51848 15.4879 4.58899 15.5292 4.6477C15.5706 4.70642 15.6288 4.75038 15.6957 4.77343C15.7627 4.79648 15.835 4.79746 15.9025 4.77623C15.97 4.75501 16.0294 4.71263 16.0722 4.65506L16.2587 3.17863ZM12.1872 14.0429C12.2176 14.0562 12.894 13.0467 13.0674 12.8288C13.3839 12.3129 12.6165 11.9839 12.4734 12.5798L12.1872 14.0429V14.0429ZM8.82691 10.961C8.83992 10.9877 10.041 10.6942 10.3228 10.6497C10.9125 10.4807 10.583 9.73363 10.0626 10.0805L8.82691 10.961ZM19.7577 6.39387C19.7491 6.36719 18.5307 6.5762 18.2488 6.60289C17.6418 6.73185 17.9236 7.5012 18.4656 7.1899L19.7577 6.39387V6.39387Z"
            fill="#FFEC2D" />
        <path fill-rule="evenodd" clip-rule="evenodd"
            d="M15.2701 2.92959C15.2397 2.92514 14.8321 4.05915 14.7107 4.30818C14.533 4.8863 15.3611 5.02861 15.3481 4.41491L15.2744 2.92514L15.2701 2.92959ZM13.1672 14.3097C13.1975 14.3186 13.6875 13.2112 13.8262 12.9667C14.043 12.4063 13.2279 12.2106 13.1975 12.8199L13.1628 14.3097H13.1672ZM12.7466 3.04076C12.7162 3.04966 12.829 4.25037 12.829 4.52609C12.9113 5.11755 13.7221 4.91299 13.4533 4.36155L12.7466 3.04076V3.04076ZM15.695 14.243C15.7253 14.2385 15.695 13.0334 15.7167 12.7576C15.6776 12.1573 14.8495 12.3085 15.0836 12.8777L15.6906 14.243H15.695ZM10.6567 4.03691C10.6306 4.0547 11.2073 5.11755 11.3157 5.37104C11.6279 5.89134 12.3 5.40217 11.8274 4.98859L10.6567 4.03691ZM17.8022 13.2824C17.8283 13.2646 17.3253 12.1617 17.2386 11.9038C16.9654 11.3657 16.263 11.8104 16.7009 12.2507L17.8022 13.2824ZM9.13042 5.53113C9.11308 5.55781 10.0453 6.34939 10.2404 6.55396C10.7217 6.92752 11.1683 6.23377 10.5786 6.01586L9.13042 5.53113ZM19.2851 11.7437C19.3025 11.717 18.4309 10.8632 18.2488 10.6497C17.7979 10.245 17.3036 10.9077 17.8759 11.1656L19.2851 11.7437ZM8.46269 7.39446C8.45402 7.42559 9.60304 7.87474 9.85452 8.00371C10.4355 8.20383 10.622 7.4078 9.98893 7.39001L8.46269 7.39446V7.39446ZM20.0569 9.96487C20.0699 9.93819 18.9556 9.41343 18.7128 9.26668C18.1491 9.02654 17.902 9.80922 18.5307 9.87148L20.0569 9.96487ZM8.42367 9.68471C8.42801 9.71139 9.66808 9.6936 9.94991 9.71584C10.5656 9.68471 10.4182 8.87978 9.82851 9.09769L8.42367 9.68471ZM20.1393 7.68352C20.1393 7.65239 18.8992 7.58568 18.6217 7.54566C18.0017 7.53676 18.0927 8.35058 18.6954 8.16825L20.1393 7.67907V7.68352ZM9.48597 12.0594C9.50331 12.0861 10.6133 11.5436 10.8735 11.4413C11.4111 11.1522 10.9168 10.4896 10.4876 10.9388L9.48597 12.0594ZM19.1247 5.28654C19.1073 5.25986 17.967 5.7268 17.6938 5.8113C17.1345 6.06478 17.5811 6.75853 18.0407 6.3405L19.1247 5.28654V5.28654ZM11.2897 13.6337C11.3157 13.6471 12.1092 12.7221 12.3086 12.5264C12.6859 12.0506 11.9618 11.637 11.7493 12.2151L11.2897 13.6337ZM17.347 3.68114C17.3253 3.66336 16.4668 4.53054 16.2543 4.71287C15.8467 5.16202 16.5405 5.62452 16.792 5.06419L17.3426 3.68114H17.347Z"
            fill="#FFEC2D" />
        <path fill-rule="evenodd" clip-rule="evenodd"
            d="M8.60501 10.9652C8.67125 11.1945 8.68071 12.4789 10.0149 13.7173C11.3397 14.9466 13.6108 15.2219 13.6108 15.2219C13.6108 15.2219 13.6202 15.3962 13.4594 15.4053C13.2985 15.4237 12.5226 15.2677 12.1346 15.1485C11.7561 15.0384 11.4154 14.8366 11.3776 14.8457C11.3303 14.8641 11.2546 14.9925 11.141 14.9742C11.0275 14.9558 10.4786 14.4054 10.2326 14.2586C9.74049 13.8462 9.30483 13.3745 8.9362 12.855C8.67125 12.4422 8.60501 12.167 8.51985 12.167C8.43468 12.167 8.12241 12.3688 8.12241 12.3688C8.12241 12.3688 7.83853 11.956 7.5925 11.2954C7.33701 10.6349 7.3654 10.2496 7.42217 10.2221C7.48841 10.1946 7.48841 10.7083 7.67766 11.1762C7.86692 11.6532 8.13187 11.8 8.13187 11.8C8.13187 11.8 7.96155 11.5523 7.82907 10.9377C7.69659 10.323 7.63981 9.7267 7.73444 9.54322C7.82907 9.35974 7.91423 9.3047 7.92369 9.31387C7.94262 9.33222 7.76283 9.59826 7.88584 10.3047C8.00886 11.011 8.34005 11.6073 8.41576 11.5798C8.49146 11.5523 8.36844 11.4055 8.32113 10.9927C8.27381 10.5799 8.36844 10.323 8.47253 10.2863C8.51985 10.2496 8.59555 10.745 8.60501 10.9652V10.9652ZM7.67766 12.1394C7.42217 11.9101 7.02474 11.112 6.93958 11.1487C6.84495 11.1945 7.58304 12.3413 7.60196 12.433C7.62089 12.5431 7.78176 12.855 7.65874 12.8091C7.53573 12.7633 6.6557 11.8642 6.75979 12.0385C6.86388 12.2128 7.52626 13.0018 7.48841 13.0476C7.45056 13.0935 6.93958 12.6073 6.92065 12.6715C6.91119 12.7266 7.42217 13.2036 7.41271 13.2586C7.40325 13.3137 7.08152 12.9559 7.08152 13.0293C7.08152 13.1027 7.41271 13.4605 7.41271 13.5155C7.41271 13.5706 7.12883 13.2586 7.22346 13.4238C7.30862 13.6073 7.55465 13.7632 7.54519 13.8183C7.53572 13.8733 7.33701 13.7449 7.33701 13.7724C7.33701 13.7999 7.70605 13.9283 7.79122 14.0293C7.88584 14.1302 8.49146 14.809 8.94567 15.1485C9.39987 15.4879 10.7057 16.0842 10.8003 16.0842C10.8855 16.0842 11.018 15.9007 10.9896 15.8273C10.9612 15.7539 9.68375 15.3319 9.33363 15.02C8.97405 14.7081 8.10349 13.9559 8.02778 13.9192C7.96155 13.8733 7.76283 13.8916 7.76283 13.8458C7.76283 13.7999 8.01832 13.8733 7.9994 13.8458C7.98993 13.8183 7.64928 13.6715 7.65874 13.6439C7.67767 13.6164 7.89531 13.699 7.89531 13.6715C7.89531 13.6439 7.49787 13.4329 7.5168 13.3871C7.52626 13.3412 7.81014 13.5155 7.81014 13.4788C7.81014 13.4605 7.43163 13.2036 7.4411 13.1577C7.45056 13.1119 7.73444 13.3596 7.72498 13.3045C7.71551 13.2495 7.49787 12.9376 7.49787 12.9009C7.49787 12.855 7.83853 13.2128 7.87638 13.1394C7.89531 13.0752 7.75337 12.4789 7.76283 12.4697C7.77229 12.4605 8.01832 12.5981 8.05617 12.5156C8.10348 12.4238 7.88584 12.3046 7.67766 12.1394V12.1394ZM12.04 16.653C11.8602 16.6805 11.775 16.6163 11.8791 16.4695C12.021 16.4695 12.3995 16.3502 12.532 16.2952C12.6645 16.2402 12.8064 16.1668 12.92 16.0659C13.0335 15.9466 13.1092 16.1301 13.043 16.231C12.9957 16.2952 12.7781 16.4145 12.6172 16.4787C12.3806 16.5521 12.1724 16.6622 12.04 16.653ZM13.2228 16.1851C13.0998 16.0567 13.2039 15.9649 13.3837 15.864C13.6486 15.7264 13.5729 15.5338 13.9136 15.3778C14.065 15.2861 16.1846 14.4604 16.8754 14.0201C17.5662 13.5797 19.506 12.1578 20.0265 11.1762C20.5374 10.2037 20.2914 10.1303 20.3671 10.0937C20.4334 10.0478 20.5091 10.2313 20.4996 10.4514C20.4807 10.6624 20.3103 11.3046 20.3671 11.3688C20.4239 11.433 21.1431 10.8643 21.4459 10.1762C21.7487 9.48818 21.9758 8.77261 22.1177 8.77261C22.2691 8.77261 21.8717 9.94687 21.6162 10.4056C21.3702 10.8643 21.0768 11.0936 21.1431 11.1945C21.2188 11.2863 21.9568 10.69 22.2123 10.2496C22.4584 9.80009 22.6949 9.40561 22.7423 9.48818C22.667 10.0256 22.4484 10.5346 22.1083 10.9652C21.7108 11.4055 21.2377 11.7266 21.3134 11.7908C21.3796 11.8642 21.919 11.9376 22.4773 11.5706C23.0451 11.1945 23.1018 10.6533 23.1681 10.6808C23.2438 10.7083 23.1018 11.4514 22.5625 11.9101C22.0231 12.3688 21.3134 12.4146 21.3323 12.5156C21.3702 12.6073 22.8747 12.0936 22.8463 12.2128C22.818 12.3229 20.897 13.0568 20.8781 13.1302C20.8781 13.1853 21.2093 13.2036 21.7297 13.0843C22.2407 12.9743 22.7328 12.5798 22.799 12.6715C22.818 12.8 22.43 13.1119 21.8433 13.2586C21.2472 13.4054 20.9538 13.5981 20.9349 13.6439C20.9254 13.6898 21.9947 13.5155 21.9947 13.5706C21.9947 13.6256 20.5942 13.8916 20.5848 13.965C20.5658 14.0293 21.9095 13.699 21.8906 13.7816C21.8528 13.8458 20.0643 14.3595 20.0832 14.387C20.0927 14.4237 21.5783 14.0751 21.55 14.1302C21.5121 14.1944 19.0518 14.8641 19.0329 14.9099C19.014 14.9466 21.2093 14.4329 21.1904 14.4788C21.1714 14.5246 20.0549 14.7907 20.0549 14.8182C20.0549 14.8457 20.9538 14.6806 20.9349 14.7265C20.9254 14.7632 18.6638 15.3228 18.6165 15.4053C18.5692 15.4971 19.7899 15.176 19.771 15.3411C19.752 15.5062 17.1498 16.3502 17.1403 16.1943C17.1214 16.0383 18.7206 15.6439 18.7112 15.598C18.6922 15.5521 17.7933 15.6897 17.7743 15.6072C17.7649 15.5154 18.3705 15.3319 18.3232 15.2952C18.2759 15.2494 17.8217 15.4237 17.8595 15.3228C17.9068 15.2219 18.7679 14.8366 18.749 14.809C18.7395 14.7815 18.4367 14.9008 18.4651 14.809C18.503 14.7081 20.3293 14.1944 20.3009 14.1302C20.2725 14.0751 19.4587 14.2586 19.383 14.2769C19.3546 14.2219 20.5185 13.7999 20.4996 13.7265C20.4617 13.6623 19.8751 13.9742 19.8372 13.8916C19.8183 13.7999 20.8686 13.4054 20.8024 13.3412C20.7362 13.277 20.263 13.5063 20.1968 13.4421C20.1306 13.3779 21.1904 12.6715 21.0295 12.6532C20.8686 12.644 20.6699 12.8733 20.651 12.7266C20.6699 12.5431 21.4743 12.2403 21.2945 12.0936C21.0106 12.011 20.0549 12.1578 19.6574 12.3871C19.26 12.6165 17.9352 13.8916 17.6135 14.0935C17.2917 14.2861 16.1941 14.7356 15.9859 14.8274C15.6642 14.9375 15.6074 15.1026 15.2762 15.2677C14.6801 15.4237 14.6895 15.598 14.4056 15.6989C14.3015 15.7264 13.2323 16.2218 13.2228 16.1851V16.1851ZM11.7277 16.8273C11.5479 16.919 11.387 17.1392 11.4911 17.2309C11.5479 17.341 11.7277 16.9832 11.8696 17.0016L12.6266 17.0383C13.0335 17.0658 13.2323 16.9557 13.4594 16.9741C13.6865 16.9924 14.188 16.8548 14.4246 16.8548C14.6611 16.8548 14.7084 16.8823 14.7274 16.7814C14.7557 16.6897 13.9893 16.7539 13.6486 16.7447C13.308 16.7264 12.8821 16.8089 12.6266 16.8089C12.3901 16.7998 11.9832 16.7264 11.7277 16.8273V16.8273Z"
            fill="#FFEC2D" />
        <path
            d="M12.8632 16.7172C12.8632 16.6412 12.7912 16.5796 12.7023 16.5796C12.6135 16.5796 12.5415 16.6412 12.5415 16.7172C12.5415 16.7932 12.6135 16.8548 12.7023 16.8548C12.7912 16.8548 12.8632 16.7932 12.8632 16.7172Z"
            fill="#FFEC2D" />
        <path fill-rule="evenodd" clip-rule="evenodd"
            d="M16.6388 16.4512C16.7997 16.4236 17.235 16.5704 17.5378 16.6346C18.0866 16.8456 19.1086 16.7447 19.1086 16.8456C19.1086 16.9465 19.0423 17.0658 18.8058 17.0841C18.5692 17.1025 17.9731 16.9924 17.992 16.9924C18.0109 16.9924 18.4651 17.2034 18.3326 17.2585C18.2002 17.3135 17.8122 17.1392 17.746 17.1851C17.6797 17.2309 18.1055 17.3135 18.0298 17.341C17.9731 17.3685 17.6797 17.3043 17.5851 17.3135C17.4905 17.3318 17.6608 17.4328 17.5472 17.4695C17.4337 17.5153 17.2444 17.4144 17.1687 17.4419C17.0836 17.4695 17.3391 17.6254 17.2255 17.6438C17.112 17.6621 16.847 17.5704 16.6956 17.552C16.5442 17.552 16.8375 17.6988 16.7429 17.7171C16.6483 17.7263 16.3833 17.5979 16.3171 17.5979C16.2509 17.5979 16.3171 17.7814 16.2225 17.7814C16.1278 17.7814 16.0143 17.6254 15.9575 17.6254C15.9007 17.6254 15.9575 17.8089 15.8629 17.8089C15.7683 17.8089 15.7304 17.6162 15.6547 17.6254C15.5601 17.6438 15.6547 17.8731 15.5222 17.8548C15.3992 17.8456 15.3803 17.6162 15.2762 17.6254C15.1816 17.6438 15.2951 17.8548 15.2005 17.8548C15.1059 17.8548 15.0869 17.6438 14.9923 17.6254C14.8977 17.6162 14.9355 17.8272 14.8788 17.8272C14.822 17.8272 14.7652 17.6254 14.7274 17.6254C14.699 17.6254 14.7274 17.8272 14.6138 17.8089C14.5003 17.7905 14.5003 17.5887 14.4719 17.5979C14.434 17.6162 14.434 17.763 14.3583 17.763C14.2826 17.763 14.2732 17.6162 14.2448 17.6346C14.2069 17.6438 14.0934 17.8272 14.0177 17.7997C13.9325 17.7722 14.0366 17.6254 13.9987 17.6254C13.9609 17.6254 13.8663 17.7263 13.8095 17.7171C13.7527 17.708 13.8095 17.5887 13.7906 17.5887C13.7716 17.5887 13.6297 17.6621 13.5635 17.6621C13.4972 17.6621 13.3174 17.7538 13.2701 17.6713C13.2228 17.5795 13.3931 17.5795 13.431 17.497C13.4594 17.4144 13.3364 17.1667 13.4688 17.0841C13.5918 16.9924 13.9987 17.2034 14.6043 17.0566C15.702 16.7722 16.5537 16.442 16.6388 16.4512V16.4512Z"
            fill="#FFEC2D" />
    </g>
    <defs>
        <clipPath id="clip0_355_40296">
            <rect width="26" height="20" rx="2" fill="white" />
        </clipPath>
    </defs>
</svg>